<svg xmlns="http://www.w3.org/2000/svg" width="171" height="55" viewBox="0 0 171 55">
  <metadata><?xpacket begin="﻿" id="W5M0MpCehiHzreSzNTczkc9d"?>
<x:xmpmeta xmlns:x="adobe:ns:meta/" x:xmptk="Adobe XMP Core 5.6-c142 79.160924, 2017/07/13-01:06:39        ">
   <rdf:RDF xmlns:rdf="http://www.w3.org/1999/02/22-rdf-syntax-ns#">
      <rdf:Description rdf:about=""/>
   </rdf:RDF>
</x:xmpmeta>
                                                                                                    
                                                                                                    
                                                                                                    
                                                                                                    
                                                                                                    
                                                                                                    
                                                                                                    
                                                                                                    
                                                                                                    
                                                                                                    
                                                                                                    
                                                                                                    
                                                                                                    
                                                                                                    
                                                                                                    
                                                                                                    
                                                                                                    
                                                                                                    
                                                                                                    
                                                                                                    
                           
<?xpacket end="w"?></metadata>
<defs>
    <style>
      .cls-1 {
        fill: #222;
        fill-rule: evenodd;
      }
    </style>
  </defs>
  <path class="cls-1" d="M484.991,2064.71a17.683,17.683,0,0,0-12.6,5.21l-2.019,2.02a13.854,13.854,0,0,1-19.607,0l-2.02-2.02a17.848,17.848,0,0,0-25.206,0l-2.021,2.02a13.885,13.885,0,0,1-19.6,0l-2.021-2.02a17.847,17.847,0,0,0-25.2,0l-2.022,2.02a13.852,13.852,0,0,1-19.605,0l-2.02-2.02a17.806,17.806,0,0,0-25.206,0l-2.02,2.02a13.807,13.807,0,0,1-9.8,4.07v3.97a17.722,17.722,0,0,0,12.6-5.23l2.02-2.02a13.852,13.852,0,0,1,19.605,0l2.02,2.02a17.806,17.806,0,0,0,25.206,0l2.022-2.02a13.887,13.887,0,0,1,19.6,0l2.021,2.02a17.823,17.823,0,0,0,25.2,0l2.021-2.02a13.888,13.888,0,0,1,19.6,0l2.019,2.02a17.808,17.808,0,0,0,25.208,0l2.019-2.02a13.76,13.76,0,0,1,9.8-4.05v-3.97Zm0-19.86a17.693,17.693,0,0,0-12.6,5.22l-2.019,2.02a13.854,13.854,0,0,1-19.607,0l-2.02-2.02a17.824,17.824,0,0,0-25.206,0l-2.021,2.02a13.885,13.885,0,0,1-19.6,0l-2.021-2.02a17.823,17.823,0,0,0-25.2,0l-2.022,2.02a13.852,13.852,0,0,1-19.605,0l-2.02-2.02a17.806,17.806,0,0,0-25.206,0l-2.02,2.02a13.807,13.807,0,0,1-9.8,4.07v3.97a17.764,17.764,0,0,0,12.6-5.23l2.02-2.03a13.87,13.87,0,0,1,19.605,0l2.02,2.03a17.806,17.806,0,0,0,25.206,0l2.022-2.03a13.887,13.887,0,0,1,19.6,0l2.021,2.03a17.847,17.847,0,0,0,25.2,0l2.021-2.03a13.888,13.888,0,0,1,19.6,0l2.019,2.03a17.808,17.808,0,0,0,25.208,0l2.019-2.03a13.76,13.76,0,0,1,9.8-4.05v-3.97Zm0-19.85a17.683,17.683,0,0,0-12.6,5.21l-2.019,2.03a13.854,13.854,0,0,1-19.607,0l-2.02-2.03a17.848,17.848,0,0,0-25.206,0l-2.021,2.03a13.885,13.885,0,0,1-19.6,0l-2.021-2.03a17.847,17.847,0,0,0-25.2,0l-2.022,2.03a13.852,13.852,0,0,1-19.605,0l-2.02-2.03a17.815,17.815,0,0,0-25.206,0l-2.02,2.03a13.8,13.8,0,0,1-9.8,4.06v3.97a17.753,17.753,0,0,0,12.6-5.22l2.02-2.03a13.852,13.852,0,0,1,19.605,0l2.02,2.03a17.824,17.824,0,0,0,25.206,0l2.022-2.03a13.887,13.887,0,0,1,19.6,0l2.021,2.03a17.847,17.847,0,0,0,25.2,0l2.021-2.03a13.888,13.888,0,0,1,19.6,0l2.019,2.03a17.827,17.827,0,0,0,25.208,0l2.019-2.03a13.76,13.76,0,0,1,9.8-4.05V2025Z" transform="translate(-314 -2025)"/>
</svg>
